Coordinates
version=1
nRows=29
nColumns=24
inDegrees=yes

Units are S.I. units (second, meters, Newtons, ...)
Angles are in degrees.

endheader
time	pelvis_tilt	pelvis_list	pelvis_rotation	pelvis_tx	pelvis_ty	pelvis_tz	hip_flexion_r	hip_adduction_r	hip_rotation_r	knee_angle_r	ankle_angle_r	subtalar_angle_r	mtp_angle_r	hip_flexion_l	hip_adduction_l	hip_rotation_l	knee_angle_l	ankle_angle_l	subtalar_angle_l	mtp_angle_l	lumbar_extension	lumbar_bending	lumbar_rotation
      4.71000000	     36.39460519	     -1.69971059	      1.36299417	     -0.20464133	      0.65420074	     -0.25722281	    -50.39114963	      3.44997591	     -5.12125112	    -14.45665477	     25.61503669	     10.60282509	      0.00000000	    -11.27397967	     -2.84227751	     -6.55808691	     -9.01628235	      8.25049005	     16.79175912	      0.00000000	    -63.17522512	      2.81311016	      1.32762202
      4.71500000	     36.45820784	     -1.71888326	      1.19099708	     -0.19900985	      0.65405862	     -0.25750076	    -50.38273162	      3.18509559	     -4.99232320	    -15.65935957	     25.23708945	     10.84049641	      0.00000000	    -11.50234616	     -2.78214780	     -6.32135589	     -9.23892259	      7.84889265	     17.03862447	      0.00000000	    -63.13941421	      2.62286132	      1.24027509
      4.72000000	     36.56120049	     -1.68498128	      1.00117850	     -0.19334485	      0.65402525	     -0.25780643	    -50.36777872	      2.85263491	     -4.92034917	    -16.95521872	     24.75396002	     11.13553059	      0.00000000	    -11.74014629	     -2.65373829	     -6.04939369	     -9.66317157	      7.48124192	     17.18514848	      0.00000000	    -63.13641721	      2.38200270	      1.15157240
      4.72500000	     36.69219247	     -1.60766534	      0.80362345	     -0.18765036	      0.65408818	     -0.25811614	    -50.32918449	      2.47212590	     -4.90811303	    -18.34751839	     24.17442783	     11.46388006	      0.00000000	    -11.98090707	     -2.47304053	     -5.76140089	    -10.25390471	      7.12879860	     17.26215707	      0.00000000	    -63.15484790	      2.10796728	      1.03880034
      4.73000000	     36.84038867	     -1.48354738	      0.62442174	     -0.18193991	      0.65422173	     -0.25843960	    -50.26053803	      2.06845350	     -4.94537366	    -19.81900089	     23.46917488	     11.76007682	      0.00000000	    -12.19288155	     -2.24595512	     -5.46363242	    -11.02705930	      6.82303357	     17.33112370	      0.00000000	    -63.19123951	      1.81272131	      0.90511057
      4.73500000	     36.98669448	     -1.31001237	      0.42597030	     -0.17614312	      0.65442581	     -0.25882064	    -50.12883791	      1.58280260	     -5.11660515	    -21.40744817	     22.71662417	     12.20668003	      0.00000000	    -12.41514056	     -1.93456540	     -5.07161754	    -11.85550030	      6.52835041	     17.14975856	      0.00000000	    -63.20002097	      1.48030993	      0.74967625
      4.74000000	     37.15298579	     -1.13367601	      0.27852080	     -0.17041759	      0.65469931	     -0.25919771	    -49.94634662	      1.14443695	     -5.28867406	    -23.09010362	     21.77127821	     12.46595735	      0.00000000	    -12.62379556	     -1.64605453	     -4.73716186	    -12.78529611	      6.27157891	     17.15166306	      0.00000000	    -63.24943057	      1.18472966	      0.55722944
      4.74500000	     37.31467570	     -0.92709449	      0.13281900	     -0.16465746	      0.65502410	     -0.25958777	    -49.71033641	      0.67584662	     -5.50949856	    -24.83549201	     20.70711399	     12.70680310	      0.00000000	    -12.81166593	     -1.31921530	     -4.41902237	    -13.79825882	      6.06159569	     17.07847200	      0.00000000	    -63.28731596	      0.86797838	      0.37386635
      4.75000000	     37.37739280	     -0.64009852	      0.09280959	     -0.15884217	      0.65528032	     -0.26014153	    -49.31754113	      0.20697073	     -5.91353317	    -26.67480950	     19.63486773	     12.92623351	      0.00000000	    -12.84819914	     -0.89774887	     -3.83493143	    -14.90064191	      5.95334254	     16.67514158	      0.00000000	    -63.21443500	      0.58768120	      0.14166260
      4.75500000	     37.54123004	     -0.40353522	     -0.01857867	     -0.15305775	      0.65569702	     -0.26057697	    -48.96909456	     -0.27949193	     -6.24393869	    -28.56185544	     18.33296875	     13.01917244	      0.00000000	    -13.07371670	     -0.54417745	     -3.56635214	    -15.89288307	      5.88636360	     16.65345204	      0.00000000	    -63.24620902	      0.28537102	     -0.03466498
      4.76000000	     37.58014927	     -0.09809799	     -0.02621515	     -0.14729941	      0.65601484	     -0.26110215	    -48.42182931	     -0.73580212	     -6.67307130	    -30.54417655	     17.05801131	     12.88564420	      0.00000000	    -13.11109117	     -0.11610686	     -3.05965429	    -16.96657972	      5.89036636	     16.23952468	      0.00000000	    -63.16865970	     -0.00176322	     -0.23426233
      4.76500000	     37.63990300	      0.18695624	     -0.04918072	     -0.14152633	      0.65641044	     -0.26163071	    -47.85469688	     -1.20735022	     -7.12882483	    -32.54297869	     15.64746746	     12.67172344	      0.00000000	    -13.22846562	      0.28232078	     -2.69267264	    -17.95221497	      5.96532346	     16.01378270	      0.00000000	    -63.10201937	     -0.26985851	     -0.40691813
      4.77000000	     37.71213553	      0.47498132	     -0.10289922	     -0.13576780	      0.65684368	     -0.26215339	    -47.25099975	     -1.71848760	     -7.59056122	    -34.56956990	     14.21812731	     12.29814747	      0.00000000	    -13.40920465	      0.69343045	     -2.37433313	    -18.85646432	      6.12143236	     15.77206269	      0.00000000	    -63.05092106	     -0.56101676	     -0.52927058
      4.77500000	     37.77780336	      0.77081456	     -0.15967779	     -0.13002924	      0.65730233	     -0.26266734	    -46.59594023	     -2.24544298	     -8.06789526	    -36.61368585	     12.77642217	     11.73253693	      0.00000000	    -13.63115352	      1.11107764	     -2.09463194	    -19.66809736	      6.33799066	     15.51142829	      0.00000000	    -62.99853257	     -0.86671282	     -0.61982909
      4.78000000	     37.83986549	      1.07575079	     -0.22349762	     -0.12429076	      0.65778511	     -0.26321388	    -45.90790130	     -2.79614071	     -8.55610534	    -38.64593682	     11.35565861	     10.98010424	      0.00000000	    -13.90071976	      1.54245825	     -1.85553694	    -20.38519416	      6.61154473	     15.25099355	      0.00000000	    -62.93739575	     -1.16483435	     -0.67900086
      4.78500000	     37.87810344	      1.36034419	     -0.27910367	     -0.11864291	      0.65827250	     -0.26370437	    -45.14384492	     -3.32193426	     -9.03377287	    -40.68348599	     10.00986571	     10.00437468	      0.00000000	    -14.17870347	      1.94095710	     -1.62100798	    -21.02231402	      6.94359213	     14.98807361	      0.00000000	    -62.87700922	     -1.47653826	     -0.70675130
      4.79000000	     37.79735125	      1.56820995	     -0.30996235	     -0.11305872	      0.65872139	     -0.26429680	    -44.18785333	     -3.77552222	     -9.43063812	    -42.73236917	      8.69257671	      8.81168896	      0.00000000	    -14.34428017	      2.25617454	     -1.40797381	    -21.61925212	      7.40009898	     14.79072551	      0.00000000	    -62.70745233	     -1.68134782	     -0.62903060
      4.79500000	     37.88810077	      1.94254460	     -0.42161586	     -0.10727567	      0.65929555	     -0.26482504	    -43.50126811	     -4.44410029	     -9.97221963	    -44.63088984	      7.59466724	      7.59700322	      0.00000000	    -14.83683353	      2.77311942	     -1.20924709	    -21.97947799	      7.78681081	     14.54820353	      0.00000000	    -62.65197675	     -2.06804092	     -0.65028359
      4.80000000	     37.91270146	      2.14407651	     -0.48357580	     -0.10192438	      0.65984271	     -0.26531580	    -42.60735976	     -4.89255639	    -10.30587349	    -46.58301940	      6.55158478	      6.02089929	      0.00000000	    -15.20210070	      3.07494516	     -1.07741894	    -22.37727335	      8.18766122	     14.34088711	      0.00000000	    -62.64255209	     -2.30337733	     -0.56301905
      4.80500000	     37.93493338	      2.40133613	     -0.57462451	     -0.09639640	      0.66041792	     -0.26587535	    -41.75719829	     -5.43162110	    -10.68999520	    -48.41932181	      5.72508701	      4.44956506	      0.00000000	    -15.65674881	      3.45789096	     -0.94010874	    -22.62728241	      8.64781558	     14.14774901	      0.00000000	    -62.57473393	     -2.57724101	     -0.47464702
      4.81000000	     37.99186015	      2.68303893	     -0.63861451	     -0.09087622	      0.66102429	     -0.26644321	    -40.97329843	     -5.97009620	    -11.11608521	    -50.14531352	      5.12290328	      2.84025227	      0.00000000	    -16.19160339	      3.85497035	     -0.81091872	    -22.79173348	      9.11390734	     13.93306826	      0.00000000	    -62.53995218	     -2.83982562	     -0.40049053
      4.81500000	     38.04163188	      2.88697774	     -0.70006746	     -0.08549318	      0.66166488	     -0.26700481	    -40.14455867	     -6.42378153	    -11.43975196	    -51.80951192	      4.65104609	      1.17013050	      0.00000000	    -16.73395914	      4.17157435	     -0.65238990	    -22.90762841	      9.57583562	     13.75769460	      0.00000000	    -62.52697196	     -3.04521307	     -0.29126665
      4.82000000	     38.08535686	      3.06429762	     -0.74414457	     -0.08016162	      0.66231761	     -0.26756520	    -39.30710016	     -6.81983201	    -11.70402437	    -53.38791636	      4.37579618	     -0.47505169	      0.00000000	    -17.28950509	      4.45535033	     -0.48594621	    -22.97820323	     10.04880140	     13.59911168	      0.00000000	    -62.51410188	     -3.21157439	     -0.15606674
      4.82500000	     38.13147726	      3.20741489	     -0.76438885	     -0.07490349	      0.66299864	     -0.26815005	    -38.47338058	     -7.15726749	    -11.93449310	    -54.86642665	      4.29519719	     -2.04577940	      0.00000000	    -17.86825870	      4.69915169	     -0.29896522	    -22.99597399	     10.51673540	     13.44173140	      0.00000000	    -62.51638501	     -3.32827027	     -0.01407645
      4.83000000	     38.17711942	      3.30737326	     -0.75999737	     -0.06972811	      0.66370433	     -0.26872712	    -37.63507235	     -7.41695492	    -12.11652882	    -56.24855691	      4.37259636	     -3.51958687	      0.00000000	    -18.45643366	      4.89049682	     -0.08953904	    -22.98205121	     10.97387079	     13.28635744	      0.00000000	    -62.53237440	     -3.39151745	      0.13851772
      4.83500000	     38.24346192	      3.39054839	     -0.71511611	     -0.06450764	      0.66444889	     -0.26928637	    -36.86707043	     -7.60449646	    -12.28836220	    -57.47909643	      4.71516129	     -4.80121722	      0.00000000	    -19.10574711	      5.05049879	      0.18328943	    -22.90259359	     11.43763532	     13.12130416	      0.00000000	    -62.54688929	     -3.40765986	      0.26091236
      4.84000000	     38.30147151	      3.41212491	     -0.64938953	     -0.05947818	      0.66521140	     -0.26982816	    -36.04861014	     -7.70763897	    -12.41625406	    -58.64926887	      5.05550756	     -5.99377309	      0.00000000	    -19.72454378	      5.13754766	      0.44814258	    -22.83257057	     11.86384448	     12.93984397	      0.00000000	    -62.60171177	     -3.36103535	      0.40008747
      4.84500000	     38.21650094	      3.30705828	     -0.58572206	     -0.05469392	      0.66590197	     -0.27033418	    -34.97697685	     -7.67354779	    -12.39352891	    -59.81997029	      5.46013210	     -7.01337846	      0.00000000	    -20.13542187	      5.08908744	      0.62829754	    -22.81959921	     12.31322757	     12.84558864	      0.00000000	    -62.57697917	     -3.24298731	      0.67345790
      4.85000000	     38.34168794	      3.31017779	     -0.45106215	     -0.04976577	      0.66670875	     -0.27080944	    -34.27355184	     -7.67657793	    -12.54587714	    -60.75868725	      6.10457530	     -7.66409506	      0.00000000	    -20.84947013	      5.12099409	      0.95378925	    -22.68989606	     12.72590930	     12.69879484	      0.00000000	    -62.71831346	     -3.14787034	      0.73292062
